<svg width="64" height="64" viewBox="0 0 64 64" version="1.1" xmlns="http://www.w3.org/2000/svg" xmlns:xlink="http://www.w3.org/1999/xlink" xmlns:figma="http://www.figma.com/figma/ns">
<title>epicurrence</title>
<desc>Created using Figma</desc>
<g id="Canvas" transform="translate(-9384 -10588)" figma:type="canvas">
<mask id="mask0_alpha" mask-type="alpha">
<path d="M 9384 10588L 9448 10588L 9448 10652L 9384 10652L 9384 10588Z" fill="#FFFFFF"/>
</mask>
<g id="epicurrence" style="mix-blend-mode:normal;" mask="url(#mask0_alpha)" figma:type="frame">
<g id="Vector 10" style="mix-blend-mode:normal;" figma:type="vector">
<use xlink:href="#path0_stroke" transform="translate(9397 10600)" fill="#EB5757" style="mix-blend-mode:normal;"/>
</g>
</g>
</g>
<defs>
<path id="path0_stroke" d="M 0 40L -0.425427 39.7373L -0.896395 40.5L 0 40.5L 0 40ZM 38 40L 38 40.5L 38.8964 40.5L 38.4254 39.7373L 38 40ZM 0 40.5L 38 40.5L 38 39.5L 0 39.5L 0 40.5ZM 38.4254 39.7373L 13.7254 -0.262701L 12.8746 0.262701L 37.5746 40.2627L 38.4254 39.7373ZM 0.425427 40.2627L 25.1254 0.262701L 24.2746 -0.262701L -0.425427 39.7373L 0.425427 40.2627Z"/>
</defs>
</svg>
