<svg width="64" height="64" viewBox="0 0 64 64" version="1.1" xmlns="http://www.w3.org/2000/svg" xmlns:xlink="http://www.w3.org/1999/xlink" xmlns:figma="http://www.figma.com/figma/ns">
<title>epicsode</title>
<desc>Created using Figma</desc>
<g id="Canvas" transform="translate(-9464 -10588)" figma:type="canvas">
<mask id="mask0_alpha" mask-type="alpha">
<path d="M 9464 10588L 9528 10588L 9528 10652L 9464 10652L 9464 10588Z" fill="#FFFFFF"/>
</mask>
<g id="epicsode" style="mix-blend-mode:normal;" mask="url(#mask0_alpha)" figma:type="frame">
<g id="Polygon 2" style="mix-blend-mode:normal;" figma:type="vector">
<mask id="mask1_outline_ins">
<use xlink:href="#path0_fill" fill="white" transform="matrix(-1 1.22465e-16 -1.22465e-16 -1 9511 10639)"/>
</mask>
<g mask="url(#mask1_outline_ins)">
<use xlink:href="#path1_stroke_2x" transform="matrix(-1 1.22465e-16 -1.22465e-16 -1 9511 10639)" fill="#F2994A" style="mix-blend-mode:normal;"/>
</g>
</g>
<g id="Ellipse 6" style="mix-blend-mode:normal;" figma:type="ellipse">
<mask id="mask2_outline_ins">
<use xlink:href="#path2_fill" fill="white" transform="translate(9490 10612)"/>
</mask>
<g mask="url(#mask2_outline_ins)">
<use xlink:href="#path3_stroke_2x" transform="translate(9490 10612)" fill="#F2994A" style="mix-blend-mode:normal;"/>
</g>
</g>
<g id="Ellipse 6" style="mix-blend-mode:normal;" figma:type="ellipse">
<mask id="mask3_outline_ins">
<use xlink:href="#path4_fill" fill="white" transform="translate(9500 10609)"/>
</mask>
<g mask="url(#mask3_outline_ins)">
<use xlink:href="#path5_stroke_2x" transform="translate(9500 10609)" fill="#F2994A" style="mix-blend-mode:normal;"/>
</g>
</g>
</g>
</g>
<defs>
<path id="path0_fill" d="M 15 0L 18.985 9.82966L 21.3561 15.6783L 27.973 32L 30 37L 0 37L 2.02703 32L 6 22L 8.50923 16.0106L 11.8731 7.71301L 12.9934 4.94975L 15 0Z"/>
<path id="path1_stroke_2x" d="M 14 7L 14.4743 7.15811L 14 7ZM 2.02703 32.5L 27.973 32.5L 27.973 31.5L 2.02703 31.5L 2.02703 32.5ZM 6 22C 5.90194 22.4903 5.90215 22.4903 5.90238 22.4904C 5.90246 22.4904 5.9027 22.4904 5.90287 22.4905C 5.90308 22.4905 5.9036 22.4906 5.90403 22.4907C 5.90461 22.4908 5.90589 22.4911 5.90705 22.4913C 5.90881 22.4916 5.9123 22.4923 5.91582 22.493C 5.92174 22.4941 5.93236 22.496 5.94402 22.498C 5.96505 22.5016 6.00015 22.5072 6.04059 22.5128C 6.11664 22.5234 6.23698 22.5371 6.37506 22.5459C 6.64065 22.5623 7.04124 22.5608 7.4572 22.4932C 8.30347 22.3522 9.35173 21.9146 9.94721 20.7236L 9.05279 20.2764C 8.64827 21.0854 7.94653 21.3978 7.2928 21.5068C 6.95876 21.5642 6.67185 21.5627 6.43744 21.5478C 6.32552 21.541 6.24274 21.5313 6.17816 21.5223C 6.14828 21.5182 6.1287 21.515 6.11262 21.5123C 6.10573 21.5111 6.10219 21.5105 6.09859 21.5098C 6.09734 21.5096 6.09723 21.5095 6.09659 21.5094C 6.09654 21.5094 6.09685 21.5095 6.09688 21.5095C 6.09676 21.5095 6.09742 21.5096 6.09736 21.5096C 6.09746 21.5096 6.09763 21.5096 6.09768 21.5096C 6.09786 21.5097 6.09806 21.5097 6 22ZM 9.94721 20.7236C 10.5469 19.5242 10.2311 18.2257 9.83941 17.3089C 9.64006 16.8447 9.4018 16.4339 9.22461 16.1594C 9.13372 16.019 9.05183 15.9023 8.99682 15.8269C 8.96822 15.7877 8.94379 15.7552 8.92831 15.735C 8.92004 15.7242 8.91285 15.715 8.90857 15.7095C 8.90617 15.7064 8.90395 15.7036 8.90273 15.7021C 8.90199 15.7012 8.90124 15.7002 8.90086 15.6997C 8.90061 15.6994 8.90033 15.6991 8.9002 15.6989C 8.90011 15.6988 8.89999 15.6986 8.89994 15.6986C 8.89983 15.6984 8.89972 15.6983 8.50923 16.0106C 8.11874 16.3229 8.11865 16.3227 8.11856 16.3226C 8.11855 16.3226 8.11847 16.3225 8.11844 16.3225C 8.11844 16.3225 8.11831 16.3223 8.11832 16.3223C 8.11821 16.3222 8.11839 16.3224 8.1186 16.3227C 8.11929 16.3236 8.11991 16.3243 8.12124 16.326C 8.12444 16.3301 8.12831 16.3351 8.13437 16.343C 8.14756 16.3602 8.16493 16.3833 8.18881 16.416C 8.23876 16.4845 8.30459 16.578 8.38471 16.7022C 8.54954 16.957 8.74648 17.2936 8.91982 17.7017C 9.27352 18.5296 9.45308 19.4758 9.05279 20.2764L 9.94721 20.7236ZM 21.3561 15.6783C 21.1729 15.2131 21.173 15.213 21.1732 15.2129C 21.1733 15.2129 21.1734 15.2129 21.1735 15.2128C 21.1735 15.2128 21.1739 15.2127 21.1739 15.2127C 21.174 15.2126 21.1739 15.2127 21.1737 15.2128C 21.1726 15.2132 21.1719 15.2135 21.1698 15.2142C 21.1646 15.2162 21.1586 15.2184 21.1486 15.222C 21.1263 15.2301 21.0976 15.2401 21.0562 15.2535C 20.9684 15.2818 20.8535 15.316 20.7025 15.351C 20.3898 15.4243 20.0073 15.4872 19.5761 15.4647C 19.138 15.4464 18.7529 15.3655 18.3763 15.1095C 18.024 14.8789 17.6921 14.4952 17.4743 13.8419L 16.5257 14.1581C 16.8079 15.0048 17.2706 15.5809 17.8287 15.9462C 18.3626 16.2862 19.0041 16.4374 19.5299 16.4636C 20.0628 16.4857 20.5818 16.4057 20.9296 16.3249C 21.1089 16.2828 21.2639 16.2372 21.3636 16.205C 21.4159 16.1881 21.4604 16.1726 21.4877 16.1628C 21.5025 16.1575 21.5155 16.1526 21.523 16.1498C 21.5274 16.1481 21.5314 16.1466 21.5336 16.1457C 21.535 16.1452 21.5364 16.1447 21.5371 16.1444C 21.5375 16.1442 21.5381 16.144 21.5383 16.1439C 21.5385 16.1438 21.5388 16.1437 21.5389 16.1437C 21.5391 16.1436 21.5393 16.1435 21.3561 15.6783ZM 17.4743 13.8419C 17.0422 12.5454 17.4638 11.689 17.9835 11.1305C 18.2566 10.833 18.5413 10.636 18.7891 10.4895C 18.9074 10.4191 18.9999 10.3722 19.0733 10.3374C 19.1074 10.3212 19.1305 10.3109 19.1494 10.3028C 19.1576 10.2993 19.162 10.2974 19.1663 10.2956C 19.1679 10.295 19.1682 10.2949 19.169 10.2946C 19.1691 10.2945 19.1688 10.2946 19.1688 10.2947C 19.1689 10.2946 19.1682 10.2949 19.1683 10.2949C 19.1682 10.2949 19.168 10.295 19.1679 10.295C 19.1677 10.2951 19.1675 10.2952 18.985 9.82966C 18.8025 9.36416 18.8023 9.36425 18.802 9.36435C 18.8019 9.36438 18.8017 9.36449 18.8015 9.36456C 18.8012 9.36466 18.8006 9.36489 18.8001 9.36508C 18.7995 9.36535 18.798 9.36592 18.7967 9.36646C 18.7947 9.36728 18.7907 9.3689 18.7866 9.37056C 18.7797 9.37339 18.7675 9.37849 18.7541 9.38426C 18.7297 9.39475 18.6897 9.41259 18.6441 9.43421C 18.5582 9.47508 18.4252 9.54307 18.2793 9.62927C 17.9987 9.79601 17.5997 10.0791 17.2515 10.4492C 16.5287 11.2259 15.9578 12.4546 16.5257 14.1581L 17.4743 13.8419ZM 11.8731 7.71301C 11.6554 8.16311 11.6556 8.1632 11.6558 8.1633C 11.6559 8.16334 11.6561 8.16344 11.6562 8.16351C 11.6564 8.1636 11.6569 8.16382 11.6572 8.16399C 11.6577 8.16421 11.6587 8.16473 11.6597 8.16516C 11.661 8.16579 11.6638 8.1671 11.6664 8.16833C 11.6706 8.17029 11.6786 8.17397 11.6869 8.17771C 11.7014 8.18418 11.7268 8.19522 11.7547 8.2067C 11.806 8.22763 11.8912 8.25979 11.9853 8.28957C 12.1632 8.34508 12.4519 8.41046 12.7392 8.41891C 13.0205 8.42227 13.4098 8.34941 13.7188 8.17002C 14.0549 7.96316 14.3175 7.62877 14.4743 7.15811L 13.5257 6.84189C 13.4325 7.12123 13.3042 7.25096 13.1946 7.31841C 13.058 7.41334 12.9468 7.42499 12.7589 7.4191C 12.577 7.4183 12.4277 7.38068 12.2849 7.3355C 12.2187 7.31494 12.1729 7.29734 12.1332 7.28109C 12.1158 7.27398 12.1057 7.26957 12.0961 7.26525C 12.0924 7.26359 12.0912 7.26303 12.0892 7.26211C 12.0887 7.26189 12.0887 7.26186 12.0889 7.26198C 12.0888 7.26191 12.0897 7.26233 12.0896 7.2623C 12.0894 7.26223 12.0902 7.26261 12.0902 7.26257C 12.0903 7.26262 12.0904 7.2627 12.0905 7.26273C 12.0907 7.26281 12.0908 7.2629 11.8731 7.71301ZM 14.4743 7.15811C 14.7384 6.3658 14.358 5.67218 14.0258 5.25287C 13.8549 5.0391 13.6617 4.85263 13.5294 4.73781C 13.46 4.67782 13.3961 4.6269 13.3557 4.5959C 13.3339 4.57925 13.3144 4.56479 13.3028 4.55637C 13.2963 4.55163 13.2901 4.54724 13.2868 4.54487C 13.2848 4.54343 13.2827 4.54195 13.2817 4.54123C 13.281 4.54075 13.2802 4.54019 13.2798 4.53995C 13.2796 4.53977 13.2792 4.53954 13.2791 4.53945C 13.279 4.53937 13.2788 4.53927 13.2788 4.53923C 13.2786 4.53913 13.2785 4.53903 12.9934 4.94975C 12.7082 5.36047 12.7081 5.36038 12.7079 5.36029C 12.7079 5.36027 12.7078 5.36019 12.7077 5.36014C 12.7078 5.36017 12.7073 5.35983 12.7074 5.35989C 12.7074 5.3599 12.707 5.35963 12.707 5.35965C 12.7067 5.35945 12.7072 5.35977 12.7078 5.36016C 12.7096 5.36146 12.7111 5.36256 12.7146 5.36506C 12.7229 5.37114 12.7325 5.37822 12.7476 5.38977C 12.7808 5.41517 12.8212 5.44726 12.8748 5.49375C 12.9883 5.59188 13.1154 5.71221 13.2419 5.87383C 13.5045 6.2053 13.6274 6.53681 13.5257 6.84189L 14.4743 7.15811ZM 15 0L 15.9267 -0.375705L 15 -2.66166L 14.0733 -0.375705L 15 0ZM 30 37L 30 38L 31.4845 38L 30.9267 36.6243L 30 37ZM 0 37L -0.926739 36.6243L -1.48446 38L 0 38L 0 37ZM 2.02703 32L 2.95379 32.3757L 2.95637 32.3692L 2.02703 32ZM 27.973 32L 28.8997 31.6243L 27.973 32ZM 6 22L 5.07767 21.6136L 5.07409 21.6222L 5.07066 21.6308L 6 22ZM 8.50923 16.0106L 9.43162 16.397L 9.43597 16.3863L 8.50923 16.0106ZM 21.3561 15.6783L 20.4293 16.054L 21.3561 15.6783ZM 18.985 9.82966L 19.9117 9.45395L 18.985 9.82966ZM 11.8731 7.71301L 10.9464 7.3373L 11.8731 7.71301ZM 12.9934 4.94975L 13.9201 5.32545L 13.9201 5.32545L 12.9934 4.94975ZM 30 36L 0 36L 0 38L 30 38L 30 36ZM 0.926739 37.3757L 2.95377 32.3757L 1.10029 31.6243L -0.926739 36.6243L 0.926739 37.3757ZM 27.0462 32.3757L 29.0733 37.3757L 30.9267 36.6243L 28.8997 31.6243L 27.0462 32.3757ZM 2.95637 32.3692L 6.92934 22.3692L 5.07066 21.6308L 1.09769 31.6308L 2.95637 32.3692ZM 6.92233 22.3864L 9.43156 16.397L 7.5869 15.6242L 5.07767 21.6136L 6.92233 22.3864ZM 20.4293 16.054L 27.0462 32.3757L 28.8997 31.6243L 22.2828 15.3026L 20.4293 16.054ZM 14.0733 0.375705L 18.0583 10.2054L 19.9117 9.45395L 15.9267 -0.375705L 14.0733 0.375705ZM 18.0583 10.2054L 20.4293 16.054L 22.2828 15.3026L 19.9117 9.45395L 18.0583 10.2054ZM 9.43597 16.3863L 12.7998 8.08871L 10.9464 7.3373L 7.58249 15.6349L 9.43597 16.3863ZM 12.7998 8.08871L 13.9201 5.32545L 12.0666 4.57404L 10.9464 7.3373L 12.7998 8.08871ZM 13.9201 5.32545L 15.9267 0.375705L 14.0733 -0.375705L 12.0666 4.57404L 13.9201 5.32545Z"/>
<path id="path2_fill" d="M 8 4C 8 6.20914 6.20914 8 4 8C 1.79086 8 0 6.20914 0 4C 0 1.79086 1.79086 0 4 0C 6.20914 0 8 1.79086 8 4Z"/>
<path id="path3_stroke_2x" d="M 7 4C 7 5.65685 5.65685 7 4 7L 4 9C 6.76142 9 9 6.76142 9 4L 7 4ZM 4 7C 2.34315 7 1 5.65685 1 4L -1 4C -1 6.76142 1.23858 9 4 9L 4 7ZM 1 4C 1 2.34315 2.34315 1 4 1L 4 -1C 1.23858 -1 -1 1.23858 -1 4L 1 4ZM 4 1C 5.65685 1 7 2.34315 7 4L 9 4C 9 1.23858 6.76142 -1 4 -1L 4 1Z"/>
<path id="path4_fill" d="M 5 2.5C 5 3.88071 3.88071 5 2.5 5C 1.11929 5 0 3.88071 0 2.5C 0 1.11929 1.11929 0 2.5 0C 3.88071 0 5 1.11929 5 2.5Z"/>
<path id="path5_stroke_2x" d="M 4 2.5C 4 3.32843 3.32843 4 2.5 4L 2.5 6C 4.433 6 6 4.433 6 2.5L 4 2.5ZM 2.5 4C 1.67157 4 1 3.32843 1 2.5L -1 2.5C -1 4.433 0.567003 6 2.5 6L 2.5 4ZM 1 2.5C 1 1.67157 1.67157 1 2.5 1L 2.5 -1C 0.567003 -1 -1 0.567003 -1 2.5L 1 2.5ZM 2.5 1C 3.32843 1 4 1.67157 4 2.5L 6 2.5C 6 0.567003 4.433 -1 2.5 -1L 2.5 1Z"/>
</defs>
</svg>
