<svg width="64" height="64" viewBox="0 0 64 64" version="1.1" xmlns="http://www.w3.org/2000/svg" xmlns:xlink="http://www.w3.org/1999/xlink" xmlns:figma="http://www.figma.com/figma/ns">
<title>middleman</title>
<desc>Created using Figma</desc>
<g id="Canvas" transform="translate(-9384 -10508)" figma:type="canvas">
<mask id="mask0_alpha" mask-type="alpha">
<path d="M 9384 10508L 9448 10508L 9448 10572L 9384 10572L 9384 10508Z" fill="#FFFFFF"/>
</mask>
<g id="middleman" style="mix-blend-mode:normal;" mask="url(#mask0_alpha)" figma:type="frame">
<g id="Vector" style="mix-blend-mode:normal;" figma:type="vector">
<use xlink:href="#path0_stroke" transform="translate(9398 10524)" fill="#F2C94C" style="mix-blend-mode:normal;"/>
</g>
</g>
</g>
<defs>
<path id="path0_stroke" d="M 9 0L 9 -0.5L 8.77732 -0.5L 8.62835 -0.334482L 9 0ZM 27 0L 27.3716 -0.334482L 27.2227 -0.5L 27 -0.5L 27 0ZM 36 10L 36.3956 10.3057L 36.6507 9.97561L 36.3716 9.66552L 36 10ZM 19 32L 18.6216 32.3268L 19.0215 32.7899L 19.3956 32.3057L 19 32ZM 0 10L -0.371647 9.66552L -0.666545 9.99318L -0.378412 10.3268L 0 10ZM 26.6284 0.334482L 35.6284 10.3345L 36.3716 9.66552L 27.3716 -0.334482L 26.6284 0.334482ZM 35.6044 9.69428L 18.6044 31.6943L 19.3956 32.3057L 36.3956 10.3057L 35.6044 9.69428ZM 19.3784 31.6732L 0.378412 9.67319L -0.378412 10.3268L 18.6216 32.3268L 19.3784 31.6732ZM 0.371647 10.3345L 9.37165 0.334482L 8.62835 -0.334482L -0.371647 9.66552L 0.371647 10.3345ZM 9 0.5L 18 0.5L 18 -0.5L 9 -0.5L 9 0.5ZM 18 0.5L 27 0.5L 27 -0.5L 18 -0.5L 18 0.5ZM 17.6096 -0.312348L 9.60957 9.68765L 10.3904 10.3123L 18.3904 0.312348L 17.6096 -0.312348ZM 10 10.5L 26 10.5L 26 9.5L 10 9.5L 10 10.5ZM 26.3904 9.68765L 18.3904 -0.312348L 17.6096 0.312348L 25.6096 10.3123L 26.3904 9.68765ZM 26 10.5L 36 10.5L 36 9.5L 26 9.5L 26 10.5ZM 0 10.5L 10 10.5L 10 9.5L 0 9.5L 0 10.5ZM 8.50248 0.0497519L 9.50248 10.0498L 10.4975 9.95025L 9.49752 -0.0497519L 8.50248 0.0497519ZM 26.5025 -0.0497519L 25.5025 9.95025L 26.4975 10.0498L 27.4975 0.0497519L 26.5025 -0.0497519ZM 19.4765 32.1516L 26.4765 10.1516L 25.5235 9.8484L 18.5235 31.8484L 19.4765 32.1516ZM 9.53723 10.1893L 18.5372 32.1893L 19.4628 31.8107L 10.4628 9.81068L 9.53723 10.1893Z"/>
</defs>
</svg>
