<svg width="64" height="64" viewBox="0 0 64 64" version="1.1" xmlns="http://www.w3.org/2000/svg" xmlns:xlink="http://www.w3.org/1999/xlink" xmlns:figma="http://www.figma.com/figma/ns">
<title>middleman</title>
<desc>Created using Figma</desc>
<g id="Canvas" transform="translate(-9384 -10508)" figma:type="canvas">
<mask id="mask0_alpha" mask-type="alpha">
<path d="M 9384 10508L 9448 10508L 9448 10572L 9384 10572L 9384 10508Z" fill="#FFFFFF"/>
</mask>
<g id="middleman" style="mix-blend-mode:normal;" mask="url(#mask0_alpha)" figma:type="frame">
<g id="Vector" style="mix-blend-mode:normal;" figma:type="vector">
<use xlink:href="#path0_stroke" transform="translate(9398 10524)" fill="#F2C94C" style="mix-blend-mode:normal;"/>
</g>
</g>
</g>
<defs>
<path id="path0_stroke" d="M 9 0L 9 -0.5L 8.77732 -0.5L 8.62835 -0.334482L 9 0ZM 27 0L 27.3716 -0.334482L 27.2227 -0.5L 27 -0.5L 27 0ZM 36 10L 36.387 10.3166L 36.6587 9.98449L 36.3716 9.66552L 36 10ZM 18 32L 17.613 32.3166L 18 32.7896L 18.387 32.3166L 18 32ZM 0 10L -0.371647 9.66552L -0.658721 9.98449L -0.386979 10.3166L 0 10ZM 26.6284 0.334482L 35.6284 10.3345L 36.3716 9.66552L 27.3716 -0.334482L 26.6284 0.334482ZM 35.613 9.68338L 17.613 31.6834L 18.387 32.3166L 36.387 10.3166L 35.613 9.68338ZM 18.387 31.6834L 0.386979 9.68338L -0.386979 10.3166L 17.613 32.3166L 18.387 31.6834ZM 0.371647 10.3345L 9.37165 0.334482L 8.62835 -0.334482L -0.371647 9.66552L 0.371647 10.3345ZM 9 0.5L 18 0.5L 18 -0.5L 9 -0.5L 9 0.5ZM 18 0.5L 27 0.5L 27 -0.5L 18 -0.5L 18 0.5ZM 17.6096 -0.312348L 9.60957 9.68765L 10.3904 10.3123L 18.3904 0.312348L 17.6096 -0.312348ZM 10 10.5L 26 10.5L 26 9.5L 10 9.5L 10 10.5ZM 26.3904 9.68765L 18.3904 -0.312348L 17.6096 0.312348L 25.6096 10.3123L 26.3904 9.68765ZM 26 10.5L 36 10.5L 36 9.5L 26 9.5L 26 10.5ZM 0 10.5L 10 10.5L 10 9.5L 0 9.5L 0 10.5ZM 8.50248 0.0497519L 9.50248 10.0498L 10.4975 9.95025L 9.49752 -0.0497519L 8.50248 0.0497519ZM 26.5025 -0.0497519L 25.5025 9.95025L 26.4975 10.0498L 27.4975 0.0497519L 26.5025 -0.0497519ZM 18.4699 32.1709L 26.4699 10.1709L 25.5301 9.82913L 17.5301 31.8291L 18.4699 32.1709ZM 9.5301 10.1709L 17.5301 32.1709L 18.4699 31.8291L 10.4699 9.82913L 9.5301 10.1709Z"/>
</defs>
</svg>
